<?xml version="1.0" encoding="UTF-8"?>
<svg id="Icon_03_-_2_Leaves_Circle" data-name="Icon 03 - 2 Leaves Circle" xmlns="http://www.w3.org/2000/svg" viewBox="0 0 66.46 69.81">
  <defs>
    <style>
      .cls-1 {
        fill: #fff7ed;
      }

      .cls-2 {
        fill: #232d3a;
      }

      .cls-3 {
        fill: #6a8c20;
      }
    </style>
  </defs>
  <path class="cls-1" d="m30.79,8.23c2.21,0,4.35.19,6.4.56,1.39.25,2.36,2.01,3.67,2.41.34.1.69.14,1.06.14.78,0,1.6-.16,2.36-.16.46,0,.89.06,1.29.24,20.2,9.36,27.27,37.11,5.65,52.99-4.17,3.07-8.87,4.41-13.69,4.41-27.68,0-58.98-44.37-13.53-60,2.33-.4,4.6-.59,6.79-.59m0-1c-2.28,0-4.62.2-6.96.6h-.08s-.08.04-.08.04C.32,15.9-.96,30.28.35,38.14c2.72,16.28,20.79,31.67,37.18,31.67,5.32,0,10.13-1.55,14.28-4.6,9.65-7.09,14.56-17.37,13.47-28.21-1.14-11.36-8.53-21.51-19.29-26.49-.49-.23-1.05-.34-1.71-.34-.43,0-.86.04-1.27.09-.39.04-.75.08-1.09.08-.31,0-.56-.03-.77-.1-.4-.12-.84-.52-1.31-.95-.68-.61-1.45-1.31-2.47-1.49-2.14-.38-4.35-.57-6.57-.57h0Z"/>
  <g>
    <path class="cls-2" d="m51.22,64.4c28.17-20.7,7.63-61.55-27.22-55.59-53.36,18.34-.95,76.29,27.22,55.59Z"/>
    <g>
      <path class="cls-3" d="m46.1,40.72c-2.49,0-4.5-2.01-4.5-4.5V4.5c0-2.49,2.01-4.5,4.5-4.5s4.5,2.01,4.5,4.5v31.72c0,2.49-2.01,4.5-4.5,4.5Z"/>
      <path class="cls-3" d="m61.96,24.86h-31.72c-2.49,0-4.5-2.01-4.5-4.5s2.01-4.5,4.5-4.5h31.72c2.49,0,4.5,2.01,4.5,4.5s-2.01,4.5-4.5,4.5Z"/>
      <path class="cls-3" d="m34.89,36.07c-1.15,0-2.3-.44-3.18-1.32-1.76-1.76-1.76-4.61,0-6.36L54.14,5.96c1.76-1.76,4.61-1.76,6.36,0,1.76,1.76,1.76,4.61,0,6.36l-22.43,22.43c-.88.88-2.03,1.32-3.18,1.32Z"/>
      <path class="cls-3" d="m57.32,36.07c-1.15,0-2.3-.44-3.18-1.32L31.71,12.33c-1.76-1.76-1.76-4.61,0-6.36,1.76-1.76,4.61-1.76,6.36,0l22.43,22.43c1.76,1.76,1.76,4.61,0,6.36-.88.88-2.03,1.32-3.18,1.32Z"/>
    </g>
  </g>
</svg>