<?xml version="1.0" encoding="UTF-8"?>
<svg id="Icon_03_-_2_Leaves_Circle" data-name="Icon 03 - 2 Leaves Circle" xmlns="http://www.w3.org/2000/svg" viewBox="0 0 410.99 76.65">
  <defs>
    <style>
      .cls-1 {
        fill: #232d3a;
      }

      .cls-2 {
        fill: #6a8c20;
      }
    </style>
  </defs>
  <path class="cls-1" d="m110.84,69.61c28.17-20.7,7.63-61.55-27.22-55.59-53.36,18.34-.95,76.29,27.22,55.59Z"/>
  <path class="cls-1" d="m0,75.15V1.65h52.5v17.7H19.05v12.3h27.15v16.05h-27.15v27.45H0Z"/>
  <path class="cls-1" d="m195.65,32.1c0,7.5-4.2,14.1-10.2,16.65l15.9,26.25h-21.3l-12.9-22.95h-9.45v22.95h-19.05V1.5h35.25c12.45,0,21.75,6.9,21.75,19.35v11.25Zm-27.15,4.65c5.55,0,7.35-1.8,7.35-6.6v-5.7c0-4.8-1.8-6.6-7.35-6.6h-10.8v18.9h10.8Z"/>
  <path class="cls-1" d="m257.2,59.85h-29.1l-5.1,15.15h-18.15L229.9,1.5h25.5l25.05,73.5h-18.15l-5.1-15.15Zm-19.2-29.85l-4.35,13.65h18l-4.35-13.65-3.9-13.5h-1.5l-3.9,13.5Z"/>
  <path class="cls-1" d="m315.39,76.65c-19.65,0-30.75-6.45-30.75-22.65v-31.35c0-16.2,11.1-22.65,30.75-22.65,4.95,0,18.15.75,25.2,1.35v17.25s-16.8-1.5-21.9-1.5c-11.1,0-15,1.8-15,12v18.9c0,9.75,4.2,11.55,15,11.55,5.1,0,11.7-.6,11.7-.6v-12.9h-14.7v-15.75h31.2v44.1s-24.75,2.25-31.5,2.25Z"/>
  <path class="cls-1" d="m358.05,75V1.5h51.75v17.7h-32.7v11.85h26.4v13.95h-26.4v12.15h33.9v17.85h-52.95Z"/>
  <g>
    <path class="cls-2" d="m105.73,45.92c-2.49,0-4.5-2.01-4.5-4.5V9.7c0-2.49,2.01-4.5,4.5-4.5s4.5,2.01,4.5,4.5v31.72c0,2.49-2.01,4.5-4.5,4.5Z"/>
    <path class="cls-2" d="m121.59,30.06h-31.72c-2.49,0-4.5-2.01-4.5-4.5s2.01-4.5,4.5-4.5h31.72c2.49,0,4.5,2.01,4.5,4.5s-2.01,4.5-4.5,4.5Z"/>
    <path class="cls-2" d="m94.51,41.28c-1.15,0-2.3-.44-3.18-1.32-1.76-1.76-1.76-4.61,0-6.36l22.43-22.43c1.76-1.76,4.61-1.76,6.36,0,1.76,1.76,1.76,4.61,0,6.36l-22.43,22.43c-.88.88-2.03,1.32-3.18,1.32Z"/>
    <path class="cls-2" d="m116.94,41.28c-1.15,0-2.3-.44-3.18-1.32l-22.43-22.43c-1.76-1.76-1.76-4.61,0-6.36,1.76-1.76,4.61-1.76,6.36,0l22.43,22.43c1.76,1.76,1.76,4.61,0,6.36-.88.88-2.03,1.32-3.18,1.32Z"/>
  </g>
</svg>