<?xml version="1.0" encoding="UTF-8"?>
<svg id="Icon_03_-_2_Leaves_Circle" data-name="Icon 03 - 2 Leaves Circle" xmlns="http://www.w3.org/2000/svg" viewBox="0 0 65.47 68.81">
  <defs>
    <style>
      .cls-1 {
        fill: #232d3a;
      }

      .cls-2 {
        fill: #6a8c20;
      }
    </style>
  </defs>
  <path class="cls-1" d="m50.22,64.4c28.17-20.7,7.63-61.55-27.22-55.59-53.36,18.34-.95,76.29,27.22,55.59Z"/>
  <g>
    <path class="cls-2" d="m45.11,40.72c-2.49,0-4.5-2.01-4.5-4.5V4.5c0-2.49,2.01-4.5,4.5-4.5s4.5,2.01,4.5,4.5v31.72c0,2.49-2.01,4.5-4.5,4.5Z"/>
    <path class="cls-2" d="m60.97,24.86h-31.72c-2.49,0-4.5-2.01-4.5-4.5s2.01-4.5,4.5-4.5h31.72c2.49,0,4.5,2.01,4.5,4.5s-2.01,4.5-4.5,4.5Z"/>
    <path class="cls-2" d="m33.89,36.07c-1.15,0-2.3-.44-3.18-1.32-1.76-1.76-1.76-4.61,0-6.36L53.14,5.96c1.76-1.76,4.61-1.76,6.36,0,1.76,1.76,1.76,4.61,0,6.36l-22.43,22.43c-.88.88-2.03,1.32-3.18,1.32Z"/>
    <path class="cls-2" d="m56.32,36.07c-1.15,0-2.3-.44-3.18-1.32L30.71,12.33c-1.76-1.76-1.76-4.61,0-6.36,1.76-1.76,4.61-1.76,6.36,0l22.43,22.43c1.76,1.76,1.76,4.61,0,6.36-.88.88-2.03,1.32-3.18,1.32Z"/>
  </g>
</svg>